HIERARCHY
ROOT root
{
	OFFSET	0	13.1	24.9
	CHANNELS 6  Xposition Yposition Zposition Xrotation Yrotation Zrotation
	JOINT spine_1
	{
		OFFSET	0	9.99999	0
		CHANNELS 3  Xrotation Yrotation Zrotation
		JOINT spine_2
		{
			OFFSET	0	112	-10
			CHANNELS 3  Xrotation Yrotation Zrotation
			JOINT spine_3
			{
				OFFSET	0	206.5	19.3
				CHANNELS 3  Xrotation Yrotation Zrotation
				JOINT spine_4
				{
					OFFSET	0	110.4	14.6
					CHANNELS 3  Xrotation Yrotation Zrotation
					JOINT neck_1
					{
						OFFSET	0	71.8	-50.3
						CHANNELS 3  Xrotation Yrotation Zrotation
						JOINT neck_2
						{
							OFFSET	0	86.2	-25.8
							CHANNELS 3  Xrotation Yrotation Zrotation
							JOINT head_ee
							{
								OFFSET	0	179.8	-8.7
								CHANNELS 3  Xrotation Yrotation Zrotation
								End Site
								{
									OFFSET	1	0	0
								}
							}
						}
					}
					JOINT left_clavicle
					{
						OFFSET	-43.2	22.4	-70.8
						CHANNELS 3  Xrotation Yrotation Zrotation
						JOINT left_shoulder
						{
							OFFSET	-93.9	-5.79999	48.7
							CHANNELS 3  Xrotation Yrotation Zrotation
							JOINT left_elbow
							{
								OFFSET	-291.4	-30.8	15.2
								CHANNELS 3  Xrotation Yrotation Zrotation
								JOINT left_lowarm_twist
								{
									OFFSET	-110.7	-3.89999	13.6
									CHANNELS 3  Xrotation Yrotation Zrotation
									JOINT left_hand
									{
										OFFSET	-110.7	-3.89999	13.6
										CHANNELS 3  Xrotation Yrotation Zrotation
										JOINT left_ee
										{
											OFFSET	-80.8	-5.10001	12.1
											CHANNELS 3  Xrotation Yrotation Zrotation
											End Site
											{
												OFFSET	1	0	0
											}
										}
									}
								}
							}
						}
					}
					JOINT right_clavicle
					{
						OFFSET	43.2	22.4	-70.8
						CHANNELS 3  Xrotation Yrotation Zrotation
						JOINT right_shoulder
						{
							OFFSET	93.9	-5.79999	48.7
							CHANNELS 3  Xrotation Yrotation Zrotation
							JOINT right_elbow
							{
								OFFSET	291.4	-30.8	15.2
								CHANNELS 3  Xrotation Yrotation Zrotation
								JOINT right_lowarm_twist
								{
									OFFSET	110.7	-3.89999	13.6
									CHANNELS 3  Xrotation Yrotation Zrotation
									JOINT right_hand
									{
										OFFSET	110.7	-3.89999	13.6
										CHANNELS 3  Xrotation Yrotation Zrotation
										JOINT right_ee
										{
											OFFSET	80.8	-5.10001	12.1
											CHANNELS 3  Xrotation Yrotation Zrotation
											End Site
											{
												OFFSET	1	0	0
											}
										}
									}
								}
							}
						}
					}
				}
			}
		}
	}
	JOINT left_hip
	{
		OFFSET	-82.8	-127.5	0.300001
		CHANNELS 3  Xrotation Yrotation Zrotation
		JOINT left_knee
		{
			OFFSET	-28.2	-396.7	2.2
			CHANNELS 3  Xrotation Yrotation Zrotation
			JOINT left_ankle
			{
				OFFSET	-11.7	-411.3	35.4
				CHANNELS 3  Xrotation Yrotation Zrotation
				JOINT left_toes
				{
					OFFSET	0	-60	-88.6
					CHANNELS 3  Xrotation Yrotation Zrotation
					JOINT left_foot_ee
					{
						OFFSET	-22.5	-16.5	-42.2
						CHANNELS 3  Xrotation Yrotation Zrotation
						End Site
						{
							OFFSET	1	0	0
						}
					}
				}
			}
		}
	}
	JOINT right_hip
	{
		OFFSET	82.8	-127.5	0.300001
		CHANNELS 3  Xrotation Yrotation Zrotation
		JOINT right_knee
		{
			OFFSET	28.2	-396.7	2.2
			CHANNELS 3  Xrotation Yrotation Zrotation
			JOINT right_ankle
			{
				OFFSET	11.7	-411.3	35.4
				CHANNELS 3  Xrotation Yrotation Zrotation
				JOINT right_toes
				{
					OFFSET	0	-60	-88.6
					CHANNELS 3  Xrotation Yrotation Zrotation
					JOINT right_foot_ee
					{
						OFFSET	22.5	-16.5	-42.2
						CHANNELS 3  Xrotation Yrotation Zrotation
						End Site
						{
							OFFSET	1	0	0
						}
					}
				}
			}
		}
	}
}
MOTION
Frames: 6
Frame Time: 0.02
805.651388313 625.204 -1822.00945258 3.61028822777 28.0049445085 2.22793165664 -0.0493697 -0.0717425 -1.80385 -0.0475604 0.0431676 -1.80476 -0.0481333 0.423135 -1.755 -0.052404 0.140702 -1.79979 -4.1216 -0.489486 7.50652 -3.92987 -6.6377 7.65877 -0.0 0.0 -0.0 2.5889 23.7369 6.27421 0.322881 -32.1393 61.2105 2.47595 -50.801 1.17583 -30.609 -2.01222 3.30794 -3.28541 27.0035 -7.50789 -0.0 0.0 -0.0 9.04937 20.0153 -17.2839 -24.2597 -3.44428 -62.3211 0.868286 23.2734 -0.178817 -3.07901 0.118611 -0.37521 1.1136 8.3 -3.99817 0.0 0.0 0.0 10.1889 -12.0968 -3.97538 -16.8047 0.319995 2.54977 31.7562 28.1331 -4.39635 -23.463 0.0 0.0 -0.0 0.0 -0.0 11.2582 34.1136 -5.90053 -35.9111 0.227333 -5.4174 31.037 -12.9499 4.02712 8.56795 -0.0 -0.0 0.0 0.0 0.0 
802.811399289 627.725 -1824.30852497 3.66288998717 29.0107556783 2.35212091615 0.00016448 -0.345397 -1.73072 0.00180045 -0.234584 -1.74918 0.00990579 0.137994 -1.75944 0.00561352 -0.141564 -1.75915 -6.30288 -1.20191 6.97113 -6.14666 -7.33644 6.80159 -0.0 0.0 -0.0 2.70271 24.861 6.4621 1.1877 -29.0257 60.9669 2.53887 -51.503 1.22484 -31.2264 -2.07003 3.36203 -3.44042 27.0829 -8.32351 -0.0 0.0 -0.0 8.76217 18.6519 -16.7458 -23.7475 -4.68471 -63.5872 0.889086 23.7697 -0.187118 -2.98784 0.114809 -0.364193 1.06209 8.10603 -3.73233 0.0 0.0 0.0 8.85101 -11.908 -4.81433 -15.5347 0.322088 2.35493 32.0291 29.4479 -4.47047 -23.2845 0.0 0.0 -0.0 0.0 -0.0 13.0769 34.0589 -7.31546 -32.0558 0.0401491 -4.85566 29.0191 -15.1721 3.82843 7.9271 -0.0 -0.0 0.0 0.0 0.0 
797.768749226 629.99 -1825.04082227 3.85396607088 31.3849039348 2.53057164208 -0.175477 -0.218956 -1.68445 -0.173905 -0.111342 -1.69496 -0.169738 0.252419 -1.67976 -0.173676 -0.0159955 -1.69854 -6.21261 -0.376578 6.1365 -6.095 -5.20529 6.11805 -0.0 0.0 -0.0 3.29292 24.1272 7.24502 2.62246 -27.4101 60.7816 2.75605 -53.769 1.39749 -31.2714 -2.07426 3.36595 -3.62035 26.509 -9.67375 -0.0 0.0 -0.0 8.90034 16.8856 -17.1632 -23.7209 -4.61477 -63.5857 0.860168 23.0787 -0.175622 -2.50824 0.0951009 -0.306138 0.853946 6.51411 -3.00077 0.0 0.0 0.0 7.9727 -11.9063 -5.11256 -14.7591 0.321241 2.23593 32.8354 28.3708 -4.52723 -23.5809 0.0 0.0 -0.0 0.0 -0.0 16.5703 35.8958 -8.11781 -26.255 -0.169193 -3.99042 26.1189 -15.0069 3.4972 7.71029 -0.0 -0.0 0.0 0.0 0.0 
795.31931713 634.032 -1827.55508924 3.03648810425 32.3466272369 3.0464426611 -0.298359 -0.281592 -1.70009 -0.296768 -0.172856 -1.71456 -0.290599 0.200082 -1.7116 -0.29468 -0.072703 -1.72172 -5.31827 -0.246557 4.89584 -5.24122 -4.11381 4.93443 -0.0 0.0 -0.0 3.03516 24.5903 6.90233 2.64803 -28.8166 61.0774 2.88999 -55.0546 1.50642 -31.5933 -2.10466 3.39389 -3.82133 26.7446 -10.662 -0.0 0.0 -0.0 8.84618 15.7759 -17.1064 -22.8772 -5.13434 -63.5183 0.852864 22.9031 -0.172769 -2.23706 0.0841732 -0.273242 0.742252 5.5862 -2.63826 0.0 0.0 0.0 8.29219 -10.8463 -5.72844 -13.7858 0.3179 2.08663 30.4908 28.494 -4.26004 -24.2073 0.0 0.0 -0.0 0.0 -0.0 16.8007 33.8974 -7.16573 -21.5466 -0.274055 -3.27568 23.4898 -15.885 3.19366 6.87836 -0.0 -0.0 0.0 0.0 0.0 
797.359485321 634.032 -1830.95997376 3.01030304711 31.5516775362 3.09592506115 -0.298359 -0.281592 -1.70009 -0.296768 -0.172856 -1.71456 -0.290599 0.200082 -1.7116 -0.29468 -0.072703 -1.72172 -5.31827 -0.246557 4.89584 -5.24122 -4.11381 4.93443 -0.0 0.0 -0.0 3.03516 24.5903 6.90233 2.64803 -28.8166 61.0774 2.88999 -55.0546 1.50642 -31.5933 -2.10466 3.39389 -3.82133 26.7446 -10.662 -0.0 0.0 -0.0 8.84618 15.7759 -17.1064 -22.8772 -5.13434 -63.5183 0.852864 22.9031 -0.172769 -2.23706 0.0841732 -0.273242 0.742252 5.5862 -2.63826 0.0 0.0 0.0 8.29219 -10.8463 -5.72844 -13.7858 0.3179 2.08663 30.4908 28.494 -4.26004 -24.2073 0.0 0.0 -0.0 0.0 -0.0 16.8007 33.8974 -7.16573 -21.5466 -0.274055 -3.27568 23.4898 -15.885 3.19366 6.87836 -0.0 -0.0 0.0 0.0 0.0 
799.697692044 635.395 -1832.21683391 2.49020373711 31.2683356886 3.80857335797 -0.307315 -0.240205 -1.71679 -0.305684 -0.130491 -1.72859 -0.300767 0.244797 -1.71614 -0.304876 -0.0292648 -1.73326 -6.05404 0.1582 5.1903 -5.97167 -3.53275 5.26954 -0.0 0.0 -0.0 3.03403 23.5924 6.88178 2.88188 -28.0825 60.735 3.02045 -56.232 1.61412 -31.3305 -2.07983 3.37109 -3.61815 25.5389 -10.2474 -0.0 0.0 -0.0 8.77116 15.5822 -16.952 -22.018 -4.39356 -63.9064 0.863783 23.1655 -0.177042 -1.19858 0.0437702 -0.146802 0.609475 3.64988 -2.55669 0.0 0.0 0.0 8.68125 -7.06131 -6.76884 -12.6092 0.310477 1.90626 28.7948 28.7447 -4.06491 -24.4527 0.0 0.0 -0.0 0.0 -0.0 17.5989 32.8772 -7.26676 -16.7647 -0.320127 -2.54362 17.756 -15.6298 2.47471 6.18393 -0.0 -0.0 0.0 0.0 0.0 
